<?xml version="1.0" standalone="no"?>
<!DOCTYPE svg PUBLIC "-//W3C//DTD SVG 20010904//EN"
 "http://www.w3.org/TR/2001/REC-SVG-20010904/DTD/svg10.dtd">
<svg version="1.0" xmlns="http://www.w3.org/2000/svg"
 width="512.000000pt" height="512.000000pt" viewBox="0 0 512.000000 512.000000"
 preserveAspectRatio="xMidYMid meet">
<metadata>
Created by potrace 1.14, written by Peter Selinger 2001-2017
</metadata>
<g transform="translate(0.000000,512.000000) scale(0.100000,-0.100000)"
fill="#000000" stroke="none">
<path d="M0 2560 l0 -2560 195 0 c123 0 195 4 195 10 0 6 8 10 18 10 14 0 15
-2 2 -10 -10 -6 496 -10 1437 -10 l1451 0 -4 102 c-3 57 -10 118 -15 136 -6
18 -13 58 -14 89 -2 31 -8 59 -13 62 -5 3 -12 24 -16 46 -5 22 -11 42 -16 45
-4 3 -9 23 -11 45 -1 22 -8 47 -15 55 -6 8 -14 67 -18 135 -3 68 -2 114 3 107
11 -19 21 18 21 85 0 28 5 55 11 59 8 5 10 -2 6 -22 -3 -16 3 -76 14 -134 11
-58 27 -145 35 -195 8 -49 20 -113 25 -142 15 -76 20 -160 22 -325 l2 -148
821 0 822 0 4 24 c3 17 0 23 -11 22 -9 -1 -16 7 -16 17 0 19 -59 80 -69 70 -3
-3 -8 2 -12 11 -3 9 -13 16 -21 16 -12 0 -13 3 -4 13 6 8 8 16 6 19 -14 13
-13 48 1 48 8 0 14 -10 14 -26 0 -38 17 -64 37 -57 11 4 14 3 9 -5 -4 -7 -1
-12 7 -12 25 0 87 -83 87 -117 0 -22 4 -23 65 -23 l65 0 0 2560 0 2560 -2560
0 -2560 0 0 -2560z m2930 2502 c40 -3 167 -52 186 -73 9 -11 23 -19 30 -19 7
0 21 -10 31 -22 10 -13 29 -25 43 -26 14 -2 48 -28 79 -60 30 -32 49 -48 43
-36 -6 11 -33 44 -59 72 -27 29 -47 52 -45 52 15 0 75 -48 125 -99 31 -32 57
-56 57 -53 0 9 67 -67 110 -124 35 -47 69 -105 137 -233 31 -59 105 -301 118
-386 4 -22 15 -82 26 -133 16 -76 19 -134 19 -310 0 -301 -25 -686 -50 -772
-5 -19 -10 -99 -10 -177 0 -78 -4 -164 -9 -190 -14 -71 -19 -153 -9 -147 4 3
8 -9 8 -26 0 -17 -4 -29 -9 -26 -5 3 -11 -13 -15 -36 -4 -24 -3 -44 3 -48 14
-8 8 -89 -9 -120 -8 -14 -14 -43 -15 -65 -5 -115 -5 -120 -15 -104 -6 10 -5
30 1 52 6 24 7 43 0 54 -8 16 -10 15 -15 -7 -2 -14 -7 -95 -10 -180 -3 -85
-13 -191 -21 -235 -9 -44 -18 -102 -19 -130 -2 -27 -10 -95 -17 -150 -8 -55
-14 -133 -14 -172 0 -76 -1 -78 -24 -64 -11 7 -13 27 -8 90 3 44 1 81 -4 83
-10 4 7 259 22 316 11 41 8 57 -12 57 -5 0 -8 5 -6 10 1 6 8 9 15 9 6 -1 12 7
12 19 0 11 -3 17 -7 14 -12 -12 -33 15 -32 42 1 25 2 25 9 -4 6 -26 8 -28 15
-11 5 11 3 52 -4 94 -15 86 -15 315 0 412 5 36 12 94 15 130 6 62 4 67 -26
105 -17 22 -40 59 -51 81 -10 23 -25 44 -33 47 -17 7 -47 94 -45 133 1 32 -10
194 -16 237 -3 15 0 27 4 27 5 0 14 -12 19 -27 8 -21 9 2 5 82 -3 79 -2 106 6
95 10 -13 11 -13 12 0 2 18 16 -45 28 -120 9 -61 10 -60 19 58 4 45 4 82 0 82
-3 0 -9 -10 -11 -22 -2 -13 -5 -2 -6 25 -1 41 2 47 19 47 18 0 20 -7 20 -59 0
-33 5 -63 11 -66 23 -15 27 -59 21 -210 -4 -86 -4 -159 0 -161 23 -14 29 88
25 396 -4 361 -16 500 -52 608 -14 40 -25 85 -25 100 0 39 -25 115 -38 120 -9
3 -10 -10 -5 -44 5 -38 3 -46 -8 -42 -10 3 -15 25 -17 70 -2 57 -6 69 -32 93
l-30 29 0 -48 c0 -30 -4 -45 -10 -41 -6 4 -10 12 -9 18 3 23 -1 37 -11 37 -11
0 -6 -588 6 -634 5 -22 4 -27 -5 -21 -9 5 -8 -2 2 -21 18 -36 37 -175 36 -268
l0 -71 -19 89 c-11 49 -28 117 -39 150 -17 53 -38 155 -47 235 -2 13 -6 26
-10 30 -12 11 4 -141 21 -208 9 -35 18 -82 20 -105 2 -22 8 -40 13 -39 6 1 13
-17 17 -40 3 -23 9 -55 12 -71 3 -19 2 -26 -6 -22 -6 4 -11 22 -11 40 0 42
-28 99 -45 92 -10 -3 -15 14 -20 65 -4 38 -13 76 -21 84 -10 10 -11 14 -2 17
13 5 5 51 -37 208 -27 101 -44 210 -48 300 -2 36 -6 71 -10 77 -5 7 -7 41 -6
75 3 72 -10 208 -21 223 -4 6 -15 69 -24 140 -10 72 -26 173 -37 225 -11 52
-23 118 -26 145 -9 89 -23 74 -23 -26 0 -63 5 -101 14 -114 7 -11 16 -42 20
-69 l6 -49 -20 26 c-11 14 -20 35 -20 46 0 12 -4 21 -10 21 -5 0 -10 -13 -10
-30 0 -21 -5 -30 -16 -30 -12 0 -15 -7 -11 -27 3 -16 -1 -53 -8 -83 -23 -89
-58 -253 -63 -285 -2 -16 -10 -45 -18 -63 -8 -19 -14 -55 -14 -81 0 -26 -4
-51 -9 -56 -10 -11 -17 -91 -26 -305 -3 -74 -13 -169 -21 -210 -7 -41 -16
-111 -19 -155 -11 -153 -14 -185 -19 -193 -2 -4 -10 -54 -16 -111 -6 -56 -15
-112 -20 -124 -8 -21 -8 -21 -19 6 -6 16 -11 49 -11 73 0 25 -4 54 -10 64 -6
12 -4 74 7 187 10 101 13 177 8 189 -8 18 -12 -7 -30 -206 -2 -30 -8 -84 -11
-118 -4 -40 -3 -66 3 -70 6 -4 13 -24 17 -45 5 -29 3 -39 -9 -43 -19 -8 -19
-28 0 -58 9 -13 15 -41 15 -62 -1 -40 16 -180 24 -192 2 -4 9 -65 16 -137 21
-219 9 -856 -20 -1105 -12 -105 -12 154 0 330 17 236 19 600 4 750 -15 152
-46 346 -74 465 -10 44 -27 123 -36 175 -26 149 -33 163 -27 60 8 -132 11
-398 6 -442 -4 -29 -14 -44 -51 -73 -39 -30 -51 -47 -70 -103 -12 -37 -25 -76
-27 -86 -3 -11 -11 -27 -20 -35 -13 -14 -15 -13 -15 5 0 11 3 24 7 28 4 4 8
22 9 39 1 18 8 61 17 97 8 36 17 97 21 135 l5 70 -14 -65 c-23 -110 -36 -161
-70 -285 -17 -66 -45 -185 -61 -265 -16 -80 -33 -148 -39 -152 -10 -7 -27 -88
-45 -207 -5 -36 -14 -78 -19 -95 -6 -17 -15 -69 -22 -116 -13 -99 -25 -120
-33 -59 -7 52 -3 269 5 269 3 0 9 -4 15 -10 5 -6 9 9 9 40 0 43 -2 49 -17 44
-13 -4 -18 0 -18 15 0 12 5 21 11 21 7 0 8 11 4 31 -4 17 -3 29 2 26 4 -3 7
29 4 70 -3 61 -1 75 10 71 12 -5 14 24 13 161 0 91 -4 177 -7 191 -3 14 -8 81
-10 150 -2 69 -2 115 1 103 2 -13 10 -23 18 -23 8 0 14 -8 14 -17 1 -106 13
-419 16 -422 2 -2 7 -2 10 1 9 10 6 329 -5 403 -5 39 -12 113 -15 165 -6 96
-31 338 -42 397 -7 36 4 79 16 67 5 -5 10 -63 13 -129 3 -66 8 -128 12 -137
17 -43 26 3 24 132 -1 75 1 143 5 149 12 19 43 12 50 -11 4 -13 9 -56 12 -97
2 -41 7 -83 10 -94 11 -35 24 -3 28 67 2 37 8 72 15 79 6 6 11 20 11 31 0 12
5 28 11 36 8 11 9 5 4 -22 -8 -48 10 -50 25 -3 15 45 35 47 26 3 -4 -18 -9
-82 -10 -143 -2 -60 -11 -138 -20 -171 -9 -34 -16 -71 -16 -83 0 -12 -4 -21
-10 -21 -6 0 -10 -26 -10 -59 0 -33 -4 -62 -9 -65 -17 -11 -22 -56 -7 -71 19
-19 32 -2 39 50 2 22 18 110 35 195 16 85 35 196 42 245 6 50 18 134 26 188 9
53 14 105 13 115 -1 9 0 35 0 57 2 37 3 38 12 15 5 -13 9 -33 8 -45 -1 -11 -1
-33 0 -50 1 -23 3 -27 11 -15 14 22 12 87 -6 198 -13 83 -14 125 -4 297 6 110
15 233 19 274 8 79 4 121 -10 121 -5 0 -9 4 -9 10 0 5 6 9 13 7 17 -3 21 62 6
115 l-13 43 -8 -75 c-5 -41 -6 -119 -3 -172 5 -89 4 -98 -14 -107 -11 -6 -27
-18 -36 -27 -9 -9 -17 -15 -19 -13 -2 2 2 43 8 92 10 71 10 87 -1 87 -9 0 -13
-15 -13 -47 0 -36 -10 -69 -40 -128 -22 -44 -40 -81 -40 -82 0 -10 30 0 40 12
7 9 21 13 31 10 11 -4 19 -2 19 5 0 6 -5 8 -12 4 -7 -4 -8 -3 -4 4 9 15 43 16
51 2 10 -16 -13 -47 -41 -54 -14 -4 -37 -20 -51 -36 -14 -17 -28 -28 -33 -25
-4 3 -13 -9 -19 -26 -6 -17 -15 -28 -21 -24 -13 8 -13 62 0 70 7 4 7 12 0 25
-11 21 5 169 21 185 10 10 12 97 3 144 -8 36 -24 32 -24 -7 0 -15 -7 -37 -15
-49 -16 -22 -43 -125 -70 -265 -10 -48 -21 -86 -25 -83 -4 3 -13 -2 -20 -10
-7 -8 -16 -13 -20 -10 -11 7 -18 -52 -13 -115 3 -51 -12 -130 -26 -130 -4 0
-8 -91 -9 -202 -1 -152 1 -204 11 -210 15 -9 17 -340 3 -638 -5 -107 -11 -332
-13 -500 -3 -173 -9 -296 -13 -285 -5 12 -9 -49 -9 -145 -1 -131 -4 -162 -13
-152 -10 10 -14 92 -19 310 -4 236 -6 266 -9 147 -2 -82 -4 -158 -3 -167 0
-10 -4 -18 -9 -18 -4 0 -8 26 -8 58 -2 167 -11 359 -19 386 -11 35 -33 307
-35 441 -5 286 -8 339 -16 320 -8 -18 -9 -18 -9 5 -1 14 -6 32 -12 40 -8 11
-9 0 -5 -40 12 -117 16 -340 6 -340 -7 0 -9 -25 -6 -65 4 -71 -9 -98 -18 -38
-31 200 -81 726 -81 848 0 65 -13 103 -30 87 -4 -4 -6 11 -5 33 4 83 0 318 -6
313 -6 -6 -5 -395 1 -443 2 -16 8 -59 14 -95 6 -36 20 -164 32 -285 20 -214
37 -376 58 -560 6 -49 11 -121 11 -158 0 -51 4 -69 15 -73 8 -4 13 -9 11 -13
-3 -4 4 -26 14 -49 23 -52 49 -307 49 -482 0 -186 11 -593 16 -611 3 -9 -1
-19 -8 -22 -12 -4 -15 36 -22 226 -12 378 -24 411 -20 54 4 -303 -1 -367 -25
-367 -4 0 -5 44 -2 97 2 62 -2 142 -13 218 -9 66 -19 174 -21 240 -4 123 -24
304 -50 455 -8 47 -21 132 -30 190 -8 58 -17 120 -20 138 -5 27 -4 31 10 26
17 -7 21 11 10 41 -5 13 -8 14 -15 3 -7 -10 -9 -9 -9 4 0 9 4 19 9 22 4 3 5
25 1 48 -5 24 -6 46 -4 50 7 11 -17 90 -33 109 -7 8 -15 54 -19 105 -3 49 -10
102 -15 118 -7 22 -6 27 5 23 11 -4 13 4 9 36 -2 23 -9 59 -15 79 -6 20 -8 53
-5 72 3 20 1 38 -4 41 -5 4 -9 37 -9 76 0 41 -4 69 -10 69 -6 0 -9 -10 -8 -22
2 -13 -1 -25 -7 -28 -6 -3 -13 22 -16 60 -24 239 -38 321 -55 327 -11 4 -5
-83 22 -322 10 -86 17 -259 20 -450 3 -282 2 -304 -11 -248 -7 33 -19 105 -25
160 -13 106 -18 129 -25 121 -5 -5 6 -103 30 -253 8 -49 17 -133 20 -185 4
-52 10 -99 13 -105 4 -5 9 -116 13 -245 4 -129 12 -257 19 -285 17 -75 40
-233 40 -280 0 -23 7 -50 15 -61 19 -25 19 -101 1 -120 -13 -12 -15 -12 -19 3
-9 33 -16 88 -32 248 -20 206 -61 462 -96 605 -15 61 -20 134 -25 389 -6 238
-4 312 4 307 7 -4 12 -1 12 9 0 9 -4 14 -9 11 -5 -4 -12 46 -15 112 -3 64 -13
155 -21 202 -18 103 -21 290 -4 273 6 -6 15 -69 19 -142 4 -72 10 -134 13
-138 4 -3 8 54 8 128 2 201 5 254 18 364 8 68 10 175 6 335 -6 188 -4 257 9
348 20 141 20 148 2 133 -23 -19 -35 -116 -46 -361 -5 -129 -15 -262 -20 -295
-6 -33 -15 -85 -20 -115 -5 -30 -14 -82 -20 -115 -12 -60 -9 -854 4 -970 3
-27 12 -149 20 -270 9 -121 18 -238 21 -260 3 -22 9 -198 15 -391 5 -193 12
-358 15 -366 4 -9 2 -19 -3 -22 -10 -6 -12 9 -36 249 -20 202 -33 390 -46 630
-21 396 -28 487 -40 499 -19 17 -4 -448 20 -634 5 -41 14 -140 20 -220 6 -80
20 -237 30 -350 28 -307 35 -384 33 -395 -1 -5 -5 -21 -9 -34 -5 -17 -4 -22 4
-17 8 5 12 -3 11 -26 -1 -31 -2 -31 -8 -8 -13 44 -24 -124 -18 -267 4 -82 2
-133 -3 -133 -6 0 -10 42 -10 98 0 68 -6 120 -21 172 -13 47 -22 114 -24 180
-3 108 -18 335 -35 542 -11 132 -13 184 -4 176 7 -7 12 -51 13 -105 1 -24 6
-43 12 -43 8 0 9 25 4 82 -10 108 -9 104 -23 120 -6 8 -10 17 -8 19 2 2 0 38
-4 79 -21 193 -32 268 -44 304 -12 36 -14 37 -21 17 -4 -13 -4 -37 -1 -54 20
-112 59 -667 71 -1012 1 -38 7 -115 13 -170 14 -141 25 -273 27 -320 0 -22 5
-48 9 -58 6 -12 3 -24 -6 -35 -8 -9 -18 -25 -21 -34 -15 -41 -24 -11 -31 94
-4 62 -11 190 -16 283 -5 94 -16 220 -24 280 -9 61 -27 201 -41 313 -14 111
-28 208 -30 215 -15 41 -67 642 -75 867 -6 146 -14 294 -20 330 -5 36 -14 94
-19 130 -6 36 -15 92 -21 125 -28 159 -33 630 -6 673 3 5 -3 12 -14 15 -18 5
-20 14 -20 76 0 68 -13 96 -23 49 -3 -13 -3 22 -1 77 3 76 2 94 -6 75 -18 -40
-50 -196 -51 -247 -1 -27 -4 -39 -6 -28 -3 11 -10 26 -15 33 -15 18 -2 126 23
192 49 128 154 308 196 333 7 4 29 32 48 62 43 69 185 222 235 255 21 14 57
39 81 56 48 34 331 185 414 220 17 7 46 19 65 27 90 39 283 96 354 106 44 6
81 12 82 14 2 2 288 1 334 -1z m100 -749 c0 -31 -4 -53 -8 -47 -8 9 -4 104 4
104 2 0 4 -26 4 -57z m387 -396 c-2 -7 0 -20 5 -31 8 -14 7 -17 -4 -14 -8 3
-14 22 -16 49 -2 35 0 40 9 26 6 -10 8 -23 6 -30z m-370 -9 c-3 -8 -6 -5 -6 6
-1 11 2 17 5 13 3 -3 4 -12 1 -19z m-115 -80 c3 -7 -4 -21 -14 -30 -19 -19
-21 -16 -12 20 7 24 19 29 26 10z m78 0 c0 -12 -38 -10 -45 2 -4 6 5 9 19 8
15 -1 26 -6 26 -10z m-771 -115 c-5 -26 -15 -79 -23 -118 l-15 -70 3 114 c3
80 8 116 17 122 22 13 26 2 18 -48z m-1032 -25 c-3 -7 -5 -2 -5 12 0 14 2 19
5 13 2 -7 2 -19 0 -25z m-90 -10 c-3 -7 -5 -2 -5 12 0 14 2 19 5 13 2 -7 2
-19 0 -25z m1233 -27 c0 -10 -7 -24 -15 -31 -17 -14 -20 -3 -9 37 7 26 24 21
24 -6z m146 -43 c0 -18 -7 -39 -13 -46 -7 -7 -13 -20 -13 -28 0 -7 -11 -16
-25 -20 -14 -3 -22 -10 -19 -15 3 -5 0 -9 -6 -9 -19 0 -24 32 -7 45 12 8 13
15 6 22 -8 8 -5 16 11 30 13 10 30 26 39 35 24 24 29 22 27 -14z m493 -87
c-15 -5 -17 -1 -23 44 l-6 40 19 -40 c12 -24 16 -41 10 -44z m428 42 c-3 -10
-5 -4 -5 12 0 17 2 24 5 18 2 -7 2 -21 0 -30z m96 -40 c2 -21 1 -45 -4 -53 -6
-10 -8 -3 -9 22 0 20 -3 43 -6 52 -3 9 -2 16 4 16 5 0 12 -17 15 -37z m-1013
23 c0 -3 -4 -8 -10 -11 -5 -3 -10 -1 -10 4 0 6 5 11 10 11 6 0 10 -2 10 -4z
m-185 -133 c-3 -29 -11 -56 -17 -59 -10 -7 -5 63 10 131 6 28 6 29 10 6 2 -14
1 -48 -3 -78z m-1208 65 c-3 -8 -6 -5 -6 6 -1 11 2 17 5 13 3 -3 4 -12 1 -19z
m68 -153 c4 -76 19 -201 38 -300 17 -93 32 -210 33 -260 1 -49 6 -123 11 -162
5 -40 6 -73 2 -73 -3 0 -9 26 -13 58 -3 31 -15 102 -25 157 -29 149 -40 235
-51 395 -10 153 -13 327 -5 319 2 -3 7 -63 10 -134z m1166 68 c-9 -16 -10 -15
-11 9 0 14 3 35 8 45 6 15 8 14 10 -9 2 -15 -1 -35 -7 -45z m-154 -25 c-3 -7
-5 -2 -5 12 0 14 2 19 5 13 2 -7 2 -19 0 -25z m-327 -27 c0 -11 -4 -23 -10
-26 -6 -4 -10 5 -10 19 0 14 5 26 10 26 6 0 10 -9 10 -19z m1200 -16 c-7 -9
-15 -13 -17 -11 -7 7 7 26 19 26 6 0 6 -6 -2 -15z m-1973 -17 c-3 -8 -6 -5 -6
6 -1 11 2 17 5 13 3 -3 4 -12 1 -19z m1103 -64 c0 -14 -4 -22 -10 -19 -5 3
-10 17 -10 31 0 14 4 22 10 19 6 -3 10 -17 10 -31z m1387 -36 c-3 -7 -5 -2 -5
12 0 14 2 19 5 13 2 -7 2 -19 0 -25z m-399 -23 c3 -39 -7 -44 -32 -16 -16 18
-16 20 6 35 12 9 23 16 23 16 1 0 2 -16 3 -35z m-2041 -97 c-3 -7 -5 -2 -5 12
0 14 2 19 5 13 2 -7 2 -19 0 -25z m1760 -145 c8 -12 13 -28 10 -35 -6 -16 -37
54 -36 79 1 16 2 15 6 -2 3 -10 12 -29 20 -42z m513 -72 c6 -34 9 -65 6 -68
-9 -10 -28 50 -32 107 -7 72 10 48 26 -39z m-144 5 c-5 -28 -15 -51 -27 -59
-12 -9 -17 -20 -13 -31 4 -11 1 -16 -10 -16 -22 0 -20 36 3 52 11 8 23 27 26
43 12 54 17 67 22 61 3 -3 2 -25 -1 -50z m-1509 -18 c-3 -8 -6 -5 -6 6 -1 11
2 17 5 13 3 -3 4 -12 1 -19z m1277 6 c3 -9 6 -23 6 -32 -1 -15 -3 -14 -15 2
-17 22 -20 46 -6 46 5 0 12 -7 15 -16z m-827 -111 c-2 -21 -4 -4 -4 37 0 41 2
58 4 38 2 -21 2 -55 0 -75z m747 31 c-11 -45 -24 -36 -20 13 5 62 6 62 17 35
5 -13 6 -35 3 -48z m-1365 -61 c-1 -93 -3 -108 -10 -73 -11 66 -11 190 1 190
6 0 10 -45 9 -117z m1487 67 c10 -9 14 -9 14 -1 0 6 11 11 25 11 16 0 25 -6
25 -16 0 -10 -6 -14 -14 -11 -18 7 -76 -14 -77 -28 -1 -18 -18 29 -17 50 0 16
2 15 8 -5 7 -22 8 -20 10 15 2 23 4 31 7 18 2 -12 11 -27 19 -33z m227 30 c3
-11 1 -23 -4 -26 -5 -3 -9 -1 -9 5 0 5 -3 16 -6 25 -3 9 -2 16 4 16 5 0 12 -9
15 -20z m-1533 -64 c0 -26 -6 -18 -14 19 -5 22 -4 26 4 15 5 -8 10 -24 10 -34z
m1273 -46 c-3 -12 -8 -19 -11 -16 -5 6 5 36 12 36 2 0 2 -9 -1 -20z m-393 -57
c0 -46 -3 -64 -10 -57 -10 10 -3 124 6 124 2 0 4 -30 4 -67z m-443 25 c-3 -8
-6 -5 -6 6 -1 11 2 17 5 13 3 -3 4 -12 1 -19z m981 -131 c2 -15 -1 -27 -6 -27
-12 0 -33 46 -24 54 12 13 27 -1 30 -27z m-1411 -74 c-3 -10 -5 -4 -5 12 0 17
2 24 5 18 2 -7 2 -21 0 -30z m1415 -12 c-6 -3 -12 -20 -15 -36 -3 -24 -4 -22
-6 13 0 23 4 42 9 42 6 0 11 8 11 18 1 10 4 7 6 -7 3 -13 0 -27 -5 -30z m283
29 c3 -5 1 -10 -4 -10 -6 0 -11 5 -11 10 0 6 2 10 4 10 3 0 8 -4 11 -10z
m-302 -150 c-7 -8 -22 24 -16 34 4 5 10 1 13 -10 4 -10 6 -21 3 -24z m-1336
-32 c-3 -8 -6 -5 -6 6 -1 11 2 17 5 13 3 -3 4 -12 1 -19z m-80 -40 c-2 -13 -4
-5 -4 17 -1 22 1 32 4 23 2 -10 2 -28 0 -40z m1420 0 c-3 -8 -6 -5 -6 6 -1 11
2 17 5 13 3 -3 4 -12 1 -19z m-1410 -60 c-3 -8 -6 -5 -6 6 -1 11 2 17 5 13 3
-3 4 -12 1 -19z m640 0 c-3 -8 -6 -5 -6 6 -1 11 2 17 5 13 3 -3 4 -12 1 -19z
m-420 -80 c-2 -13 -4 -3 -4 22 0 25 2 35 4 23 2 -13 2 -33 0 -45z m-163 -53
c8 -31 11 -71 7 -105 -6 -52 -7 -54 -19 -32 -8 14 -15 70 -18 135 -4 117 0
117 30 2z m1968 4 c12 -129 30 -450 25 -455 -9 -10 -57 387 -57 473 0 92 23
80 32 -18z m-2025 39 c-3 -8 -6 -5 -6 6 -1 11 2 17 5 13 3 -3 4 -12 1 -19z
m1782 -178 c-2 -103 -17 -111 -18 -10 0 65 2 90 9 80 5 -8 9 -40 9 -70z
m-1199 -17 c1 -331 -2 -435 -17 -520 -9 -51 -21 -93 -26 -93 -5 0 -6 8 -1 18
4 9 9 139 10 288 2 149 5 283 8 298 3 14 8 37 11 51 9 43 14 28 15 -42z m-503
5 c-3 -7 -5 -2 -5 12 0 14 2 19 5 13 2 -7 2 -19 0 -25z m-187 -248 c1 -74 5
-189 9 -255 4 -66 4 -129 1 -139 -8 -24 -18 73 -25 254 -3 74 -7 174 -10 221
-4 86 4 122 16 77 4 -13 8 -84 9 -158z m2042 99 l-10 -44 -1 55 c-1 39 2 51
10 43 7 -7 8 -24 1 -54z m-15 -86 c-3 -10 -5 -4 -5 12 0 17 2 24 5 18 2 -7 2
-21 0 -30z m-1406 -165 c1 -73 1 -167 0 -208 -3 -102 -37 -272 -58 -288 -32
-23 -37 2 -22 114 12 98 14 104 21 69 5 -21 10 -40 12 -42 10 -11 28 213 27
340 -1 93 3 147 9 147 6 0 11 -51 11 -132z m1406 100 c-3 -8 -6 -5 -6 6 -1 11
2 17 5 13 3 -3 4 -12 1 -19z m152 -95 c6 -38 11 -88 10 -113 -1 -25 3 -97 9
-160 7 -63 11 -131 11 -150 -1 -33 -2 -33 -10 10 -4 25 -13 104 -19 175 -6 72
-14 169 -18 218 -4 48 -5 87 -1 87 3 0 11 -30 18 -67z m-1508 -416 c-18 -18
-21 -3 -14 69 l7 69 8 -64 c6 -42 5 -68 -1 -74z m-44 61 c-3 -8 -6 -5 -6 6 -1
11 2 17 5 13 3 -3 4 -12 1 -19z m-1 -114 c-4 -13 -13 -24 -21 -24 -19 0 -19
17 0 54 8 15 16 36 17 45 0 9 3 1 5 -18 3 -19 2 -44 -1 -57z m-196 -24 c0 -27
-4 -50 -10 -50 -5 0 -10 23 -10 50 0 28 5 50 10 50 6 0 10 -22 10 -50z m1787
-32 c-2 -13 -4 -3 -4 22 0 25 2 35 4 23 2 -13 2 -33 0 -45z m-2217 22 c0 -5 7
-58 15 -117 17 -126 25 -342 13 -372 -11 -31 -31 -26 -25 6 3 15 1 90 -3 167
-18 296 -19 326 -9 326 5 0 9 -4 9 -10z m1150 -31 c0 -22 -4 -38 -8 -35 -8 5
-4 76 4 76 2 0 4 -18 4 -41z m1098 -184 c-1 -45 -2 -42 -13 30 -6 44 -9 85 -6
90 8 15 20 -62 19 -120z m-721 83 c-3 -7 -5 -2 -5 12 0 14 2 19 5 13 2 -7 2
-19 0 -25z m-1287 -261 c0 -2 -10 -12 -22 -23 l-23 -19 19 23 c18 21 26 27 26
19z m-50 -62 c-7 -8 -18 -15 -24 -15 -6 0 -2 7 8 15 25 19 32 19 16 0z m1948
-15 c12 -19 11 -20 -8 -8 -11 7 -20 16 -20 20 0 15 15 8 28 -12z m407 -50 c3
-5 2 -10 -4 -10 -5 0 -13 5 -16 10 -3 6 -2 10 4 10 5 0 13 -4 16 -10z m48 -35
c8 -8 18 -11 22 -7 5 4 5 1 1 -6 -6 -11 -12 -10 -29 5 -12 10 -24 19 -26 20
-2 2 1 3 7 3 6 0 17 -7 25 -15z m-1973 1 c0 -3 -4 -8 -10 -11 -5 -3 -10 -1
-10 4 0 6 5 11 10 11 6 0 10 -2 10 -4z m1665 -54 c25 -31 26 -34 5 -17 -38 31
-50 43 -50 49 0 14 17 2 45 -32z m395 3 c11 -13 10 -15 -4 -9 -9 3 -16 10 -16
15 0 5 -7 9 -15 9 -8 0 -15 5 -15 10 0 13 31 -2 50 -25z m-2080 15 c0 -5 -4
-10 -10 -10 -5 0 -10 -7 -10 -15 0 -8 -4 -15 -9 -15 -5 0 -23 -12 -40 -26
l-31 -26 0 26 c0 14 6 26 13 26 6 0 26 11 42 25 33 26 45 31 45 15z m2130 -55
c7 -8 8 -15 2 -15 -5 0 -15 7 -22 15 -7 8 -8 15 -2 15 5 0 15 -7 22 -15z m45
-35 c3 -5 2 -10 -4 -10 -5 0 -13 5 -16 10 -3 6 -2 10 4 10 5 0 13 -4 16 -10z
m-2287 -9 c-6 -18 -143 -131 -146 -122 -5 16 75 93 81 79 3 -8 6 -6 6 5 1 10
7 24 14 32 13 16 51 20 45 6z m2574 -66 c69 -14 119 -49 56 -40 -28 5 -30 4
-10 -4 12 -6 22 -15 22 -21 0 -6 5 -8 10 -5 6 3 10 -1 10 -9 0 -17 -15 -22
-24 -7 -3 4 -32 18 -65 31 -42 15 -58 26 -54 36 3 8 -4 18 -18 24 -21 9 -20
10 11 6 19 -3 47 -8 62 -11z"/>
<path d="M2471 4894 c0 -11 3 -14 6 -6 3 7 2 16 -1 19 -3 4 -6 -2 -5 -13z"/>
<path d="M2571 4734 c0 -11 3 -14 6 -6 3 7 2 16 -1 19 -3 4 -6 -2 -5 -13z"/>
<path d="M2057 4733 c-4 -3 -7 -11 -7 -17 0 -6 5 -5 12 2 6 6 9 14 7 17 -3 3
-9 2 -12 -2z"/>
<path d="M3460 4648 c0 -9 7 -22 17 -29 15 -13 15 -12 3 11 -17 34 -20 36 -20
18z"/>
<path d="M2080 4609 c0 -11 5 -17 10 -14 6 3 10 13 10 21 0 8 -4 14 -10 14 -5
0 -10 -9 -10 -21z"/>
<path d="M2380 4594 c0 -14 4 -23 10 -19 6 3 10 15 10 26 0 10 -4 19 -10 19
-5 0 -10 -12 -10 -26z"/>
<path d="M1801 4584 c0 -11 3 -14 6 -6 3 7 2 16 -1 19 -3 4 -6 -2 -5 -13z"/>
<path d="M1786 4544 c-4 -9 -4 -19 -1 -22 2 -3 7 3 11 12 4 9 4 19 1 22 -2 3
-7 -3 -11 -12z"/>
<path d="M2355 4536 c-11 -51 -9 -114 4 -100 8 8 31 92 31 112 0 18 -31 8 -35
-12z"/>
<path d="M1901 4489 c-6 -18 -11 -44 -11 -59 0 -14 -11 -58 -24 -97 -13 -38
-27 -93 -31 -121 l-7 -52 26 10 c19 7 26 6 26 -2 0 -8 3 -9 11 -1 6 6 7 22 3
39 l-8 29 -7 -25 -7 -25 -1 28 c-1 15 3 27 8 27 5 0 12 44 16 98 3 53 11 114
16 136 13 47 5 58 -10 15z m-24 -206 c-3 -10 -5 -4 -5 12 0 17 2 24 5 18 2 -7
2 -21 0 -30z"/>
<path d="M2510 4448 c0 -18 -5 -51 -9 -73 -15 -64 -23 -207 -11 -200 5 3 10
25 10 48 0 23 4 58 9 77 13 50 20 180 10 180 -5 0 -9 -15 -9 -32z"/>
<path d="M1757 4430 c-3 -11 -1 -20 4 -20 5 0 9 9 9 20 0 11 -2 20 -4 20 -2 0
-6 -9 -9 -20z"/>
<path d="M2336 4401 c-4 -7 -5 -15 -2 -18 9 -9 19 4 14 18 -4 11 -6 11 -12 0z"/>
<path d="M2429 4330 c-3 -41 -4 -77 -2 -79 10 -13 14 15 11 80 l-3 74 -6 -75z"/>
<path d="M3352 4320 c0 -14 2 -19 5 -12 2 6 2 18 0 25 -3 6 -5 1 -5 -13z"/>
<path d="M3358 4207 c3 -80 11 -112 22 -101 10 10 -6 143 -18 156 -4 4 -6 -21
-4 -55z"/>
<path d="M2041 4234 c0 -11 3 -14 6 -6 3 7 2 16 -1 19 -3 4 -6 -2 -5 -13z"/>
<path d="M3273 4185 c0 -27 2 -38 4 -22 2 15 2 37 0 50 -2 12 -4 0 -4 -28z"/>
<path d="M3612 4210 c0 -14 2 -19 5 -12 2 6 2 18 0 25 -3 6 -5 1 -5 -13z"/>
<path d="M2032 4185 c0 -16 2 -22 5 -12 2 9 2 23 0 30 -3 6 -5 -1 -5 -18z"/>
<path d="M3621 4155 c0 -11 4 -29 9 -40 8 -18 9 -18 9 5 0 14 -4 32 -9 40 -8
12 -10 12 -9 -5z"/>
<path d="M2267 4103 c-3 -21 -8 -46 -12 -55 -4 -10 -3 -18 2 -18 10 0 33 65
33 94 0 32 -17 15 -23 -21z"/>
<path d="M2023 4040 c0 -25 2 -35 4 -22 2 12 2 32 0 45 -2 12 -4 2 -4 -23z"/>
<path d="M1840 4047 c0 -9 -4 -17 -10 -17 -6 0 -10 -47 -10 -120 0 -66 4 -120
9 -120 8 0 21 258 14 269 -2 2 -3 -3 -3 -12z"/>
<path d="M3287 3940 c3 -69 10 -130 15 -137 5 -7 7 -17 3 -22 -3 -6 -1 -19 5
-28 8 -14 10 7 5 82 -3 55 -6 107 -7 115 0 8 -6 38 -14 65 -12 46 -12 41 -7
-75z"/>
<path d="M3653 4020 c3 -11 1 -20 -5 -20 -6 0 -8 -10 -5 -22 29 -121 36 -176
40 -333 3 -111 2 -163 -3 -135 -6 30 -7 7 -3 -70 8 -177 5 -469 -6 -525 -5
-27 -10 -166 -11 -308 0 -142 -3 -264 -5 -270 -9 -28 -25 -320 -29 -542 -4
-250 7 -259 18 -15 4 74 11 180 16 235 6 55 12 143 14 195 3 52 9 129 14 170
6 41 11 122 12 180 2 117 4 137 15 163 4 9 2 23 -3 30 -10 12 -6 195 4 206 2
2 5 -32 5 -77 1 -45 3 -86 4 -92 1 -5 3 -18 4 -27 2 -16 3 -16 10 1 11 27 13
436 3 436 -5 0 -12 91 -16 203 -3 111 -11 245 -17 297 -5 52 -14 136 -20 185
-5 50 -9 105 -9 123 0 23 -5 32 -16 32 -11 0 -15 -6 -11 -20z"/>
<path d="M2236 3968 c-6 -28 -2 -48 8 -37 10 11 17 69 8 69 -5 0 -12 -14 -16
-32z"/>
<path d="M3522 3970 c0 -14 2 -19 5 -12 2 6 2 18 0 25 -3 6 -5 1 -5 -13z"/>
<path d="M2646 3957 c-5 -15 -6 -31 -2 -34 11 -11 18 5 14 34 l-4 28 -8 -28z"/>
<path d="M2171 3954 c0 -11 3 -14 6 -6 3 7 2 16 -1 19 -3 4 -6 -2 -5 -13z"/>
<path d="M1201 3934 c0 -11 3 -14 6 -6 3 7 2 16 -1 19 -3 4 -6 -2 -5 -13z"/>
<path d="M2162 3870 c0 -14 2 -19 5 -12 2 6 2 18 0 25 -3 6 -5 1 -5 -13z"/>
<path d="M2225 3877 c-4 -10 -5 -21 -1 -24 10 -10 18 4 13 24 -4 17 -4 17 -12
0z"/>
<path d="M1700 3830 c0 -19 3 -21 12 -12 9 9 9 15 0 24 -9 9 -12 7 -12 -12z"/>
<path d="M2200 3815 c0 -8 4 -15 9 -15 5 0 11 7 15 15 3 9 0 15 -9 15 -8 0
-15 -7 -15 -15z"/>
<path d="M1820 3773 c0 -5 5 -15 10 -23 8 -12 10 -11 10 8 0 12 -4 22 -10 22
-5 0 -10 -3 -10 -7z"/>
<path d="M1704 3704 c3 -33 8 -95 12 -138 3 -44 10 -89 15 -100 7 -16 8 -13 4
14 -2 19 -7 88 -11 153 -4 65 -11 120 -17 124 -6 3 -7 -17 -3 -53z"/>
<path d="M3573 3720 c0 -25 2 -35 4 -22 2 12 2 32 0 45 -2 12 -4 2 -4 -23z"/>
<path d="M3262 3650 c-1 -19 3 -53 7 -75 l9 -40 0 50 c0 28 -4 61 -8 75 -7 23
-8 22 -8 -10z"/>
<path d="M1416 3645 c-14 -67 13 -847 34 -965 5 -30 11 -79 14 -109 3 -29 7
-56 10 -59 9 -8 7 76 -4 185 -5 54 -12 141 -15 193 -3 52 -9 160 -13 240 -5
80 -7 225 -6 322 3 175 -5 260 -20 193z"/>
<path d="M2594 3530 c3 -74 6 -152 6 -172 0 -22 5 -38 11 -38 9 0 10 23 5 83
-4 45 -9 120 -12 167 -9 138 -17 107 -10 -40z"/>
<path d="M2017 3469 c-3 -38 -2 -80 3 -92 6 -15 9 7 9 71 1 50 -1 92 -3 92 -2
0 -6 -32 -9 -71z"/>
<path d="M2721 3464 c0 -11 3 -14 6 -6 3 7 2 16 -1 19 -3 4 -6 -2 -5 -13z"/>
<path d="M1733 3385 c0 -33 2 -45 4 -27 2 18 2 45 0 60 -2 15 -4 0 -4 -33z"/>
<path d="M2643 3375 c0 -27 2 -38 4 -22 2 15 2 37 0 50 -2 12 -4 0 -4 -28z"/>
<path d="M3753 3320 c0 -25 2 -35 4 -22 2 12 2 32 0 45 -2 12 -4 2 -4 -23z"/>
<path d="M2010 3308 c0 -13 5 -30 10 -38 7 -11 10 -5 10 23 0 20 -4 37 -10 37
-5 0 -10 -10 -10 -22z"/>
<path d="M1742 3280 c0 -19 2 -27 5 -17 2 9 2 25 0 35 -3 9 -5 1 -5 -18z"/>
<path d="M2573 3265 c0 -22 2 -30 4 -17 2 12 2 30 0 40 -3 9 -5 -1 -4 -23z"/>
<path d="M2613 3185 c0 -22 2 -30 4 -17 2 12 2 30 0 40 -3 9 -5 -1 -4 -23z"/>
<path d="M2573 3182 c3 -13 -1 -28 -9 -36 -8 -8 -14 -25 -14 -38 1 -21 2 -22
14 -5 7 9 19 17 25 17 15 0 5 59 -11 75 -7 7 -9 3 -5 -13z"/>
<path d="M2661 3053 c-1 -24 4 -43 9 -43 12 0 12 37 0 65 -7 15 -9 10 -9 -22z"/>
<path d="M3461 3044 c0 -11 3 -14 6 -6 3 7 2 16 -1 19 -3 4 -6 -2 -5 -13z"/>
<path d="M3536 3023 c-14 -51 -17 -141 -11 -294 4 -94 11 -166 15 -159 8 12
13 470 6 470 -3 0 -7 -8 -10 -17z"/>
<path d="M3472 2855 c-1 -91 4 -173 12 -210 13 -58 13 -56 8 70 -2 72 -8 166
-12 210 -6 71 -7 64 -8 -70z"/>
<path d="M2521 2954 c0 -11 3 -14 6 -6 3 7 2 16 -1 19 -3 4 -6 -2 -5 -13z"/>
<path d="M2330 2928 c0 -16 5 -28 10 -28 13 0 13 20 0 40 -8 12 -10 9 -10 -12z"/>
<path d="M2506 2858 c-13 -87 -15 -111 -7 -102 10 10 26 134 17 134 -3 0 -7
-15 -10 -32z"/>
<path d="M1633 2794 c-3 -8 -1 -20 6 -27 8 -8 11 -4 11 16 0 30 -7 35 -17 11z"/>
<path d="M2307 2737 c-11 -29 -9 -53 4 -40 6 6 9 21 7 34 -3 21 -4 22 -11 6z"/>
<path d="M2072 2640 c0 -14 2 -19 5 -12 2 6 2 18 0 25 -3 6 -5 1 -5 -13z"/>
<path d="M1409 2580 c-2 -14 0 -79 7 -145 l11 -120 1 90 c0 108 -11 213 -19
175z"/>
<path d="M2280 2585 c0 -8 4 -15 10 -15 5 0 7 7 4 15 -4 8 -8 15 -10 15 -2 0
-4 -7 -4 -15z"/>
<path d="M2348 2463 c-6 -82 6 -94 20 -23 7 33 10 65 7 70 -14 23 -23 6 -27
-47z"/>
<path d="M1841 2474 c0 -11 3 -14 6 -6 3 7 2 16 -1 19 -3 4 -6 -2 -5 -13z"/>
<path d="M1332 2360 c0 -14 2 -19 5 -12 2 6 2 18 0 25 -3 6 -5 1 -5 -13z"/>
<path d="M1392 2350 c0 -19 2 -27 5 -17 2 9 2 25 0 35 -3 9 -5 1 -5 -18z"/>
<path d="M1908 2283 c6 -65 10 -70 11 -15 0 28 -3 52 -7 52 -4 0 -6 -17 -4
-37z"/>
<path d="M2311 2290 c-12 -21 -20 -59 -24 -118 -3 -48 -9 -96 -13 -106 -5 -14
-4 -17 4 -12 7 4 12 19 12 33 0 14 6 39 14 56 8 18 19 57 24 87 6 30 14 63 17
73 12 29 -14 19 -34 -13z"/>
<path d="M3693 2180 c0 -30 2 -43 4 -27 2 15 2 39 0 55 -2 15 -4 2 -4 -28z"/>
<path d="M1422 2180 c0 -14 2 -19 5 -12 2 6 2 18 0 25 -3 6 -5 1 -5 -13z"/>
<path d="M1441 2164 c0 -11 3 -14 6 -6 3 7 2 16 -1 19 -3 4 -6 -2 -5 -13z"/>
<path d="M3723 2145 c0 -22 2 -30 4 -17 2 12 2 30 0 40 -3 9 -5 -1 -4 -23z"/>
<path d="M3681 2104 c0 -11 3 -14 6 -6 3 7 2 16 -1 19 -3 4 -6 -2 -5 -13z"/>
<path d="M1936 1998 c18 -134 24 -154 19 -66 -6 95 -15 158 -24 158 -4 0 -2
-42 5 -92z"/>
<path d="M1880 2043 c1 -21 7 -56 15 -78 8 -22 15 -53 15 -70 0 -16 5 -37 10
-45 11 -17 3 74 -11 130 -5 19 -9 47 -9 62 0 15 -4 30 -10 33 -6 4 -10 -9 -10
-32z"/>
<path d="M2091 2044 c0 -11 3 -14 6 -6 3 7 2 16 -1 19 -3 4 -6 -2 -5 -13z"/>
<path d="M1983 1975 c0 -33 2 -45 4 -27 2 18 2 45 0 60 -2 15 -4 0 -4 -33z"/>
<path d="M2236 1898 c-5 -16 -5 -36 0 -45 7 -16 8 -15 11 5 3 12 3 32 0 45 -3
21 -4 20 -11 -5z"/>
<path d="M1993 1870 c0 -25 2 -35 4 -22 2 12 2 32 0 45 -2 12 -4 2 -4 -23z"/>
<path d="M1968 1819 c-2 -7 1 -45 8 -83 7 -39 13 -86 13 -104 1 -23 5 -32 14
-29 6 2 11 10 9 16 -1 6 -6 53 -12 103 -9 86 -22 127 -32 97z"/>
<path d="M1922 1800 c0 -14 2 -19 5 -12 2 6 2 18 0 25 -3 6 -5 1 -5 -13z"/>
<path d="M1418 1650 c2 -16 9 -30 14 -30 5 0 6 10 3 23 -11 35 -22 40 -17 7z"/>
<path d="M2205 1605 c-3 -26 -4 -49 -2 -52 3 -3 9 16 12 42 4 25 5 48 2 51 -2
3 -8 -16 -12 -41z"/>
<path d="M1970 1458 c0 -19 2 -20 10 -8 13 19 13 30 0 30 -5 0 -10 -10 -10
-22z"/>
<path d="M3587 1323 c-4 -3 -7 -16 -6 -27 0 -19 1 -19 10 3 10 24 8 36 -4 24z"/>
</g>
</svg>
